<svg xmlns="http://www.w3.org/2000/svg" viewBox="0 0 129.26 118.99"><defs><style>.cls-1{fill:#ff8200;}</style></defs><g id="Capa_2" data-name="Capa 2"><g id="PORTAL"><path class="cls-1" d="M0,8.72H14.91S12.43,26.16,27.35,26.16,40.5,8.72,40.5,8.72H87S84.5,26.16,99.41,26.16,111.85,8.72,111.85,8.72h17.39v24H0Z"/><path class="cls-1" d="M27.35,19.61h.78A5.81,5.81,0,0,0,34,13.79v-8A5.82,5.82,0,0,0,28.13,0h-.78a5.83,5.83,0,0,0-5.83,5.83v8A5.82,5.82,0,0,0,27.35,19.61Z"/><path class="cls-1" d="M99.35,19.61h.78A5.82,5.82,0,0,0,106,13.79v-8A5.83,5.83,0,0,0,100.13,0h-.78a5.82,5.82,0,0,0-5.82,5.83v8A5.83,5.83,0,0,0,99.35,19.61Z"/><path class="cls-1" d="M126,38.65H3.24A3.26,3.26,0,0,0,0,41.91v73.83A3.27,3.27,0,0,0,3.24,119H126a3.28,3.28,0,0,0,3.26-3.27V41.91A3.28,3.28,0,0,0,126,38.65ZM11.26,73.79a2.54,2.54,0,0,1,2.51-2.54H38.36a2.52,2.52,0,0,1,2.51,2.54V83.86a2.51,2.51,0,0,1-2.51,2.51H13.77a2.51,2.51,0,0,1-2.51-2.51ZM41,108.56a2.54,2.54,0,0,1-2.5,2.55H13.91a2.55,2.55,0,0,1-2.54-2.55V98.49A2.52,2.52,0,0,1,13.91,96h24.6a2.5,2.5,0,0,1,2.5,2.5Zm0-49.42a2.54,2.54,0,0,1-2.5,2.55H13.91a2.55,2.55,0,0,1-2.54-2.55V49.07a2.55,2.55,0,0,1,2.54-2.54h24.6A2.52,2.52,0,0,1,41,49.07Zm8.9,14.65a2.56,2.56,0,0,1,2.55-2.54H77a2.56,2.56,0,0,1,2.55,2.54V83.86A2.53,2.53,0,0,1,77,86.37H52.46a2.54,2.54,0,0,1-2.55-2.51Zm29.77,34.77a2.56,2.56,0,0,1-2.54,2.55H52.54a2.52,2.52,0,0,1-2.5-2.55V98.49a2.49,2.49,0,0,1,2.5-2.5h24.6a2.54,2.54,0,0,1,2.54,2.5Zm0-49.42a2.56,2.56,0,0,1-2.54,2.55H52.54A2.52,2.52,0,0,1,50,59.14V49.07a2.53,2.53,0,0,1,2.5-2.54h24.6a2.56,2.56,0,0,1,2.54,2.54Zm9.95,14.65a2.54,2.54,0,0,1,2.5-2.54h24.6a2.52,2.52,0,0,1,2.5,2.54V83.86a2.5,2.5,0,0,1-2.5,2.51H92.13a2.5,2.5,0,0,1-2.5-2.51Zm29.74,34.77a2.53,2.53,0,0,1-2.5,2.55H92.25a2.56,2.56,0,0,1-2.54-2.55V98.49A2.52,2.52,0,0,1,92.25,96h24.6a2.49,2.49,0,0,1,2.5,2.5v10.07Zm0-49.42a2.53,2.53,0,0,1-2.5,2.55H92.25a2.56,2.56,0,0,1-2.54-2.55V49.07a2.56,2.56,0,0,1,2.54-2.54h24.6a2.52,2.52,0,0,1,2.5,2.54V59.14Z"/></g></g></svg>