<svg xmlns="http://www.w3.org/2000/svg" viewBox="0 0 978.5 381.57"><defs><style>.cls-1{fill:#007d8a;}.cls-2,.cls-31{fill:none;}.cls-2,.cls-36{stroke:#fff;}.cls-2{stroke-linecap:round;stroke-linejoin:round;stroke-width:7px;}.cls-13,.cls-3,.cls-4{fill:#fff;}.cls-4{font-size:20px;font-family:Roboto-Bold, Roboto;font-weight:700;}.cls-5{letter-spacing:-0.09em;}.cls-6{letter-spacing:-0.03em;}.cls-7{letter-spacing:-0.1em;}.cls-8{letter-spacing:-0.06em;}.cls-9{letter-spacing:0.01em;}.cls-10{letter-spacing:-0.01em;}.cls-11{letter-spacing:-0.03em;}.cls-12{letter-spacing:-0.01em;}.cls-13{font-size:15.95px;font-family:Roboto-Medium, Roboto;font-weight:500;}.cls-14{letter-spacing:0.02em;}.cls-15{letter-spacing:0em;}.cls-16,.cls-36{fill:#00a08b;}.cls-17{fill:#69686a;}.cls-18{fill:#606c6d;}.cls-19{fill:#616c6e;}.cls-20{fill:#fefefe;}.cls-21{fill:#01a19a;}.cls-22{fill:#67686a;}.cls-23{fill:#f5d9e0;}.cls-24{fill:#f6d8e0;}.cls-25{fill:#6c6c6c;}.cls-26{fill:#afe6e1;}.cls-27{fill:#f4faf8;}.cls-28{fill:#f2f9f9;}.cls-29{fill:#fbfbfb;}.cls-30{fill:#fcfcfc;}.cls-31{stroke:#00a08b;}.cls-31,.cls-36{stroke-miterlimit:10;stroke-width:1.14px;}.cls-32{letter-spacing:0.02em;}.cls-33{letter-spacing:-0.04em;}.cls-34{letter-spacing:-0.02em;}.cls-35{letter-spacing:-0.01em;}.cls-37{letter-spacing:-0.01em;}</style></defs><g id="Capa_2" data-name="Capa 2"><g id="AFILIACIÓN"><rect class="cls-1" y="34.05" width="939.15" height="310.65" rx="14.13"/><path class="cls-2" d="M551.49,327.67H960.87A14.13,14.13,0,0,0,975,313.54V17.63A14.13,14.13,0,0,0,960.87,3.5H41A14.13,14.13,0,0,0,26.87,17.63V313.54A14.12,14.12,0,0,0,41,327.67H482.6v45.9"/><polygon class="cls-3" points="470.73 359.62 482.6 371.5 494.46 359.62 494.46 369.7 482.6 381.57 470.73 369.7 470.73 359.62"/><text class="cls-4" transform="translate(82.78 75.46)"><tspan class="cls-5">P</tspan><tspan x="11.16" y="0">ARA</tspan><tspan class="cls-6" x="50.84" y="0"> </tspan><tspan x="55.23" y="0">TURNOS O CONSU</tspan><tspan class="cls-7" x="224" y="0">L</tspan><tspan class="cls-8" x="232.83" y="0">T</tspan><tspan x="244.03" y="0">AS PODRÁ </tspan><tspan class="cls-9" x="345.67" y="0">H</tspan><tspan class="cls-10" x="359.98" y="0">A</tspan><tspan x="373.23" y="0">CER</tspan><tspan class="cls-11" x="410.33" y="0">L</tspan><tspan x="420.54" y="0">O POR A</tspan><tspan class="cls-11" x="497.24" y="0">L</tspan><tspan x="507.44" y="0">GUNO DE ES</tspan><tspan class="cls-12" x="619.91" y="0">T</tspan><tspan x="632.01" y="0">OS MEDIOS.</tspan></text><text class="cls-13" transform="translate(591.79 179.85)">po<tspan class="cls-14" x="18.06" y="0">r</tspan><tspan class="cls-15" x="24.06" y="0">tal.das.gob.ar</tspan></text><path class="cls-16" d="M653.09,110.79a16.83,16.83,0,1,0,16.83,16.83A16.83,16.83,0,0,0,653.09,110.79ZM650.34,118a8.75,8.75,0,0,0-1.33,2,13.79,13.79,0,0,0-.66,1.56l-.25-.14-.2-.12a10.42,10.42,0,0,1-1.47-1.1A10,10,0,0,1,650.34,118Zm-4.44,2.65a10.32,10.32,0,0,0,1.65,1.24l.2.13.37.21a19.08,19.08,0,0,0-.73,5.07h-4.34A9.94,9.94,0,0,1,645.9,120.6Zm-2.85,7.4h4.34a19.84,19.84,0,0,0,.73,5.05l-.37.21-.2.13a11,11,0,0,0-1.66,1.24A10,10,0,0,1,643.05,128Zm3.37,7.15A10.65,10.65,0,0,1,647.9,134l.19-.11.26-.15a13.05,13.05,0,0,0,.66,1.56,8.6,8.6,0,0,0,1.33,2A10.07,10.07,0,0,1,646.42,135.15Zm6.27,2.51h-.07l-.78-.06a5.89,5.89,0,0,1-2.32-2.65,12,12,0,0,1-.6-1.46,10.13,10.13,0,0,1,2.21-.76l.22,0a9.62,9.62,0,0,1,1.34-.17Zm0-5.88a10.79,10.79,0,0,0-1.46.18l-.23,0a10.94,10.94,0,0,0-2.31.75A18.66,18.66,0,0,1,648,128h4.68Zm0-4.53H648a18.58,18.58,0,0,1,.68-4.79,11,11,0,0,0,2.31.77l.23,0a9.4,9.4,0,0,0,1.46.18Zm0-4.53a9.63,9.63,0,0,1-1.34-.16l-.22,0a10.13,10.13,0,0,1-2.21-.76,13.71,13.71,0,0,1,.6-1.45,5.84,5.84,0,0,1,2.32-2.65c.26,0,.52-.06.78-.07h.07ZM660,120.3a10.29,10.29,0,0,1-1.59,1.11l-.19.11-.29.15a14.21,14.21,0,0,0-.72-1.77,8.24,8.24,0,0,0-1.34-2A10,10,0,0,1,660,120.3Zm-6.52-2.72h.11c.26,0,.52,0,.78.07a5.78,5.78,0,0,1,2.32,2.65,12.06,12.06,0,0,1,.67,1.63,9.78,9.78,0,0,1-2.26.66l-.23,0a10.43,10.43,0,0,1-1.39.11Zm0,5.89a12.63,12.63,0,0,0,1.49-.12l.23,0a10.7,10.7,0,0,0,2.37-.67,18.66,18.66,0,0,1,.64,4.61h-4.73Zm0,4.53h4.73a18.49,18.49,0,0,1-.64,4.59,10.49,10.49,0,0,0-2.36-.68l-.24,0a12.6,12.6,0,0,0-1.49-.11Zm.89,9.59-.78.06h-.11v-5.17a10.41,10.41,0,0,1,1.39.12l.23,0a10.1,10.1,0,0,1,2.26.67,14.22,14.22,0,0,1-.67,1.63A5.89,5.89,0,0,1,654.33,137.59Zm1.5-.3a8.31,8.31,0,0,0,1.34-2,13.46,13.46,0,0,0,.72-1.76l.29.15.19.1A10,10,0,0,1,660,135,9.93,9.93,0,0,1,655.83,137.29Zm4.66-2.88a11,11,0,0,0-1.79-1.24l-.2-.11-.39-.22a19.11,19.11,0,0,0,.67-4.84h4.35A9.89,9.89,0,0,1,660.49,134.41Zm-1.7-7.16a19.88,19.88,0,0,0-.68-4.87l.39-.2.2-.11a11.62,11.62,0,0,0,1.78-1.25,10,10,0,0,1,2.65,6.43Z"/><path class="cls-17" d="M662.43,232.69a11.16,11.16,0,0,1-1.1,1.46,7.87,7.87,0,0,1-6.14,2.58,7.64,7.64,0,0,1-3.8-1.12.72.72,0,0,0-.28-.13,9.36,9.36,0,0,1-2.77-3.07,8.79,8.79,0,0,1-.89-2.87,7.8,7.8,0,0,1,.2-3c.13.15.11.34.15.52,0,.44-.11.88-.12,1.32a7.55,7.55,0,0,0,.18,1.77,7.63,7.63,0,0,0,5.19,5.91,7.27,7.27,0,0,0,7.37-1.43,7.74,7.74,0,0,0,2.76-5.26,9.14,9.14,0,0,0,0-2.09.42.42,0,0,1,0-.27.18.18,0,0,1,.21-.06,8.14,8.14,0,0,1,0,3.44A9.77,9.77,0,0,1,662.43,232.69Z"/><path class="cls-18" d="M663.37,226.91l-.19.07s-.09,0-.12,0a6.61,6.61,0,0,0-.9-2.48,7.78,7.78,0,0,0-3.29-3.14,7.33,7.33,0,0,0-3.3-.8,6.91,6.91,0,0,0-2.42.36,8,8,0,0,0-3.45,2.27,7.78,7.78,0,0,0-1.77,3.43,1.1,1.1,0,0,0,0,.36.17.17,0,0,1-.16.07,2,2,0,0,1-.09-.53,6.29,6.29,0,0,1,.73-2,8,8,0,0,1,14.14,0,11.39,11.39,0,0,1,.64,1.48c.05.15,0,.3.09.43a.55.55,0,0,0,.11.41Z"/><path class="cls-19" d="M648.25,221.29c-.59,0-1.19,0-1.78,0a.59.59,0,0,1-.47-.2c-.78-.84-1.57-1.66-2.36-2.5-.08-.09-.24-.17-.17-.32s.23-.08.36-.08a9.47,9.47,0,0,1,6.15,2.54l.29.26c.07.06.13.13.09.22s-.13.07-.21.07Z"/><path class="cls-17" d="M663.36,226.8a.26.26,0,0,1-.11-.41A1.19,1.19,0,0,1,663.36,226.8Z"/><path class="cls-20" d="M647.74,227l.13-.07a.68.68,0,0,1,.46-.08c2.55,0,5.09,0,7.64,0a.69.69,0,0,0,.74-.46,5.46,5.46,0,0,1,.55-1.11c.24-.18.32.06.45.17a10.08,10.08,0,0,1,.59,1,.65.65,0,0,0,.69.4h3.68a.58.58,0,0,1,.41.07l.1,0a8.14,8.14,0,0,1-.47,4.58,7.68,7.68,0,0,1-6.11,4.86,7.78,7.78,0,0,1-8.43-5A8.24,8.24,0,0,1,647.74,227Z"/><path class="cls-21" d="M663.08,227h-3.54a2.7,2.7,0,0,1-1-.05c-.28-.13-.35-.55-.54-.84s-.23-.39-.34-.58,0-.36-.29-.18q-.37.72-.72,1.47a.27.27,0,0,1-.28.18h-8.47a.19.19,0,0,1-.06-.19,7.5,7.5,0,0,1,1.47-3.23,7.38,7.38,0,0,1,3-2.35,10.77,10.77,0,0,1,1.65-.58,5,5,0,0,1,.56-.09,7.78,7.78,0,0,1,4.66.86,7.92,7.92,0,0,1,1.57,1.13,8,8,0,0,1,2.23,3.5C663,226.31,663.21,226.61,663.08,227Z"/><path class="cls-21" d="M648,221c-.48,0-1,0-1.45,0a.59.59,0,0,1-.51-.23c-.44-.55-1-1-1.47-1.53l-.57-.62s-.1-.08-.06-.15.1,0,.15,0a7.43,7.43,0,0,1,1.56.22,8.65,8.65,0,0,1,1.42.44,7.68,7.68,0,0,1,1.76,1,5.9,5.9,0,0,1,.79.63c.06.06.19.11.14.21s-.17.05-.26.05Z"/><path class="cls-22" d="M650,228.65c0-.15-.11-.25,0-.36s0,0,0,0c.11.33.26.44.63.23a.71.71,0,0,1,.83.19,1.73,1.73,0,0,1,.1,2.25.87.87,0,0,1-1.4,0,1.68,1.68,0,0,1-.18-1.81c.07-.16.11-.24-.08-.35a.77.77,0,0,1-.38-.54s0-.11,0-.12.1,0,.12.08A1,1,0,0,0,650,228.65Z"/><path class="cls-22" d="M660.84,228.35c.08.12,0,.22,0,.34.24-.11.25-.36.42-.5a.67.67,0,0,1-.33.66c-.14.09-.13.16-.08.29a1.7,1.7,0,0,1-.15,1.7.91.91,0,0,1-1.64-.12,1.68,1.68,0,0,1,.15-1.82.87.87,0,0,1,1.26-.25c.12.08.17.08.23-.06S660.72,228.4,660.84,228.35Z"/><path class="cls-23" d="M659.64,232.75a.42.42,0,0,1-.43-.25.43.43,0,0,1,.15-.48.73.73,0,0,1,.85-.14.37.37,0,0,1,.11.57A1,1,0,0,1,659.64,232.75Z"/><path class="cls-24" d="M650.79,232.69a.53.53,0,0,1-.48-.16c-.12-.1-.21-.23-.13-.39a.39.39,0,0,1,.37-.3.83.83,0,0,1,.69.21c.1.11.21.22.14.37a.43.43,0,0,1-.39.28Z"/><path class="cls-25" d="M655.18,233.09a2.38,2.38,0,0,1-1.23-.29c-.09-.05-.23-.09-.16-.23s.17,0,.25,0a2.33,2.33,0,0,0,2.3,0c.09,0,.2-.14.27,0s-.08.17-.16.21A2.38,2.38,0,0,1,655.18,233.09Z"/><path class="cls-26" d="M657.34,225.32c0-.15.1-.19.19,0a.4.4,0,0,1,.1.23C657.51,225.47,657.52,225.23,657.34,225.32Z"/><path class="cls-27" d="M654.21,222.16l-.73.49a7,7,0,0,0-2.07,2.3.45.45,0,0,1-.49.26c-.21,0-.2-.08-.12-.22a7.92,7.92,0,0,1,1.49-1.92c.27-.25.58-.47.87-.71S653.79,222.15,654.21,222.16Z"/><path class="cls-28" d="M655.61,222.19a8.15,8.15,0,0,0-1.17.84,4.4,4.4,0,0,0-.5.46.58.58,0,0,1-.76.23c0-.09.05-.14.1-.2a11.36,11.36,0,0,1,1.15-1A1.24,1.24,0,0,1,655.61,222.19Z"/><path class="cls-29" d="M651,229.44c0,.4-.25.71-.52.69s-.45-.33-.43-.73.25-.62.5-.61S651,229.08,651,229.44Z"/><path class="cls-30" d="M659.1,229.52a.78.78,0,0,1,.36-.69.32.32,0,0,1,.41.07.71.71,0,0,1,.16.76.72.72,0,0,1-.09.2.46.46,0,0,1-.44.26.41.41,0,0,1-.35-.35A1.38,1.38,0,0,1,659.1,229.52Z"/><path class="cls-31" d="M637.07,242.15l3.9-.83,2.56-.55c.32.27.65.53,1,.77a17.19,17.19,0,1,0-5.3-6l-.93,2.87Z"/><text class="cls-13" transform="translate(573.99 278.79)">Asistente Vi<tspan class="cls-32" x="86.12" y="0">r</tspan><tspan x="92.12" y="0">tual E</tspan><tspan class="cls-33" x="131.98" y="0">V</tspan><tspan x="141.72" y="0">A: </tspan><tspan x="10.94" y="22.79">+549 11 3644 0119</tspan></text><text class="cls-13" transform="translate(204.27 278.79)">Cent<tspan class="cls-34" x="33.15" y="0">r</tspan><tspan x="38.48" y="0">o de Información </tspan><tspan class="cls-35" x="163.65" y="0">P</tspan><tspan x="173.74" y="0">ersonalizada </tspan><tspan x="62.81" y="22.79">CIP: 0810-222-0317</tspan></text><path class="cls-16" d="M338.79,209.73a16.8,16.8,0,1,0,16.81,16.8A16.8,16.8,0,0,0,338.79,209.73Zm8.61,23.71a7.58,7.58,0,0,1-.41.92,4.27,4.27,0,0,1-3.28,2.3c-.3.05-.6,0-.9.05l-.7-.1-.83-.26a11.14,11.14,0,0,1-3.58-2.28,29.7,29.7,0,0,1-6.68-9.16,10.52,10.52,0,0,1-.9-3.36c0-.34,0-.69,0-1l.1-.7.06-.15a4.23,4.23,0,0,1,3.25-3.17,7,7,0,0,1,1.13-.15l.4.05a1.56,1.56,0,0,1,.91,1.22c.24,1.07.47,2.13.7,3.2a4.07,4.07,0,0,1,.05.49,1,1,0,0,1-.72,1c-.33.13-.67.24-1,.34a.85.85,0,0,0-.59.65,2.33,2.33,0,0,0,.05,1.28,13.8,13.8,0,0,0,4.16,6,9.27,9.27,0,0,0,1.27.88,1.58,1.58,0,0,0,1,.17.77.77,0,0,0,.57-.34l.57-.81a1.06,1.06,0,0,1,1.46-.44c.34.15.66.34,1,.51l1.83,1,.46.28a1.47,1.47,0,0,1,.78,1.13Z"/><circle class="cls-16" cx="338.79" cy="127.61" r="16.82"/><rect class="cls-36" x="328.94" y="119.8" width="19.7" height="15.62"/><polygon class="cls-36" points="338.77 129.17 343.44 124.61 348.12 120.05 338.77 120.05 329.41 120.05 334.09 124.61 338.77 129.17"/><text class="cls-13" transform="translate(262.26 179.85)">contac<tspan class="cls-37" x="48.59" y="0">t</tspan><tspan x="53.66" y="0">o@das.gob.ar</tspan></text></g></g></svg>