<svg xmlns="http://www.w3.org/2000/svg" viewBox="0 0 129.92 94.35"><defs><style>.cls-1{fill:#01a19a;}.cls-2{fill:none;}</style></defs><g id="Capa_2" data-name="Capa 2"><g id="PORTAL"><path class="cls-1" d="M0,11.66c.45-.18.37-.65.45-1A14,14,0,0,1,13.66,0c.43,0,.84,0,1.27,0H115c6.34,0,11,2.68,13.74,8.53a35.34,35.34,0,0,1,1.18,3.37V82.68c-.44.18-.36.64-.45,1a14,14,0,0,1-13.2,10.67l-1.14,0q-50.17,0-100.33,0c-6.28,0-10.91-2.75-13.65-8.52-.48-1-.47-2.2-1.15-3.13Q0,47.19,0,11.66ZM65.1,3.56q-25.18,0-50.37,0C8,3.57,3.57,8,3.57,14.66q0,32.55,0,65.07c0,6.52,4.45,11,11,11q50.43,0,100.85,0c6.52,0,11-4.52,11-11q0-32.6,0-65.2a11.91,11.91,0,0,0-.39-3.14c-1.32-4.91-5.38-7.85-10.91-7.85Z"/><path class="cls-2" d="M65.1,3.56h50c5.54,0,9.59,2.93,10.91,7.84a12.23,12.23,0,0,1,.39,3.14q0,32.61,0,65.21c0,6.52-4.46,11-11,11q-50.43,0-100.85,0c-6.52,0-11-4.54-11-11q0-32.55,0-65.07C3.57,8,8,3.58,14.73,3.57Q39.93,3.53,65.1,3.56Zm-.12,81c16.56,0,33.15-.06,49.72.06a5.19,5.19,0,0,0,5.48-5.45q-.14-32,0-63.92a5.16,5.16,0,0,0-5.36-5.43q-49.86.12-99.7,0a5.13,5.13,0,0,0-5.35,5.31q.12,32.08,0,64.17a5.15,5.15,0,0,0,5.36,5.32C31.74,84.46,48.37,84.52,65,84.52Z"/><path class="cls-1" d="M65,84.52c-16.61,0-33.24-.06-49.85.06a5.15,5.15,0,0,1-5.36-5.32q.12-32.07,0-64.17a5.13,5.13,0,0,1,5.35-5.31q49.85.12,99.7,0a5.14,5.14,0,0,1,5.36,5.43q-.14,32,0,63.92a5.19,5.19,0,0,1-5.48,5.45C98.13,84.46,81.54,84.52,65,84.52ZM65,13.39H15.32c-1.82,0-1.93.11-1.93,1.94V79c0,1.85.11,2,1.92,2h99.32c1.82,0,1.93-.11,1.93-2V15.35c0-1.85-.09-2-1.92-2Z"/><path class="cls-2" d="M65,13.39h49.6c1.83,0,1.92.09,1.92,2V79c0,1.84-.11,2-1.93,2H15.31c-1.83,0-1.92-.11-1.92-2V15.33c0-1.83.11-1.94,1.93-1.94ZM39.69,66.73H60.11c1.79,0,2.17-.32,2.18-2.1,0-3,0-6,0-9a4.09,4.09,0,0,0-2-3.59,27.43,27.43,0,0,0-2.62-1.52c-3-1.5-6.06-2.94-9.1-4.42-1.7-.85-1.9-1.67-.87-3.36a9.24,9.24,0,0,0,1.44-3.22,2.89,2.89,0,0,1,.71-1.39c1.34-1.78,2.47-3.81,1.31-5.95a12.73,12.73,0,0,1-1.11-5,10.13,10.13,0,0,0-11.86-8.9,9.86,9.86,0,0,0-8.81,11A1.84,1.84,0,0,1,29,30.82a4.82,4.82,0,0,0-.94,3.7,8.06,8.06,0,0,0,2.12,4.16c.94,1.19.75,3.15,2.08,4.32l.28.25A1.48,1.48,0,0,1,32,45.74c-.5.22-1,.44-1.49.68-3.78,1.77-7.62,3.42-11.24,5.5a4.25,4.25,0,0,0-2.38,4.13c.09,2.83,0,5.67,0,8.5,0,1.71.5,2.18,2.19,2.18ZM85.56,41c6.8,0,13.61,0,20.42,0a7.12,7.12,0,1,0,.13-14.23q-20.55-.06-41.09,0A6.7,6.7,0,0,0,59.74,29a6.77,6.77,0,0,0-1.28,7.54,6.78,6.78,0,0,0,6.66,4.36C72,41,78.75,41,85.56,41Zm6.56,3.54H78.55a9.36,9.36,0,0,0-2.63.29,7.21,7.21,0,0,0-5,7.58,7.13,7.13,0,0,0,7.27,6.4c9.25,0,18.51,0,27.77,0a7.12,7.12,0,0,0,7-9.13,7,7,0,0,0-7-5.15C101.33,44.45,96.73,44.49,92.12,44.49Z"/><path class="cls-1" d="M39.69,66.73H19.13c-1.69,0-2.17-.47-2.19-2.18,0-2.83.06-5.67,0-8.5a4.3,4.3,0,0,1,2.37-4.13c3.63-2.08,7.46-3.73,11.25-5.5L32,45.74a1.49,1.49,0,0,0,.53-2.49,3.33,3.33,0,0,0-.28-.25c-1.33-1.17-1.14-3.14-2.08-4.32a8.14,8.14,0,0,1-2.12-4.16,4.74,4.74,0,0,1,.94-3.7,1.92,1.92,0,0,0,.4-1.51,9.87,9.87,0,0,1,8.81-11,10.12,10.12,0,0,1,11.86,8.9,12.57,12.57,0,0,0,1.12,5c1.15,2.14,0,4.17-1.32,5.95a3,3,0,0,0-.71,1.39,9.49,9.49,0,0,1-1.43,3.22c-1,1.69-.84,2.51.87,3.36,3,1.48,6.06,2.93,9.09,4.42A27.43,27.43,0,0,1,60.32,52a4.11,4.11,0,0,1,2,3.59c0,3,0,6,0,9,0,1.78-.39,2.1-2.19,2.1Zm-.21-3.55c6.1,0,12.17,0,18.26,0,.73,0,1-.09,1-.94-.06-2,0-4,0-6.09a1.52,1.52,0,0,0-.87-1.52c-3.3-1.89-6.79-3.36-10.18-5-4.26-2.08-4.27-2-4.07-6.8a1.59,1.59,0,0,1,.42-1.29,5.12,5.12,0,0,0,1.63-4.09,1.92,1.92,0,0,1,1.18-1.77,1.66,1.66,0,0,0,.24-2.9,1.92,1.92,0,0,1-.79-1.88c.07-.67.12-1.34.18-2a6.29,6.29,0,0,0-5.7-7c-3.95-.5-7.21,1.71-7.85,5.3a14.82,14.82,0,0,0,.17,3.65,2.07,2.07,0,0,1-.9,2.08,1.63,1.63,0,0,0,.26,2.75,2.11,2.11,0,0,1,1.33,2,5,5,0,0,0,1.94,4,2.07,2.07,0,0,1,.79,1.9,19.27,19.27,0,0,0,0,2.28,2.37,2.37,0,0,1-1.62,2.57c-1.42.63-2.83,1.28-4.24,2-3.15,1.51-6.39,2.86-9.45,4.56a1.64,1.64,0,0,0-1,1.7c.08,1.81.08,3.64,0,5.45,0,1,.2,1.26,1.22,1.25C27.48,63.15,33.47,63.18,39.48,63.18Z"/><path class="cls-1" d="M85.56,41H65.14a6.8,6.8,0,0,1-6.67-4.36,6.75,6.75,0,0,1,1.29-7.54A6.67,6.67,0,0,1,65,26.7c13.7,0,27.4,0,41.09,0A7.12,7.12,0,1,1,106,41C99.17,41,92.37,41,85.56,41Zm.09-3.59c6.76,0,13.52,0,20.29,0a3.46,3.46,0,0,0,3.71-3.46,3.5,3.5,0,0,0-3.7-3.62H65.12a3.55,3.55,0,1,0,0,7.09Z"/><path class="cls-1" d="M92.12,44.49c4.6,0,9.21,0,13.82,0a7,7,0,0,1,7,5.15,7.13,7.13,0,0,1-7,9.13c-9.26,0-18.52,0-27.78,0a7.11,7.11,0,0,1-7.27-6.4,7.22,7.22,0,0,1,5.06-7.58,9.32,9.32,0,0,1,2.63-.29Zm-.06,10.69c4.69,0,9.38,0,14.06,0a3.54,3.54,0,0,0,0-7.07c-9.42,0-18.84,0-28.25,0a3.23,3.23,0,0,0-2.73,1.36,3.38,3.38,0,0,0-.4,3.69,3.42,3.42,0,0,0,3.35,2Z"/><path class="cls-2" d="M39.48,63.18c-6,0-12,0-18,0-1,0-1.26-.29-1.22-1.24.08-1.81.07-3.64,0-5.45a1.64,1.64,0,0,1,1-1.7c3.06-1.72,6.3-3.05,9.45-4.57,1.41-.67,2.82-1.34,4.24-2a2.35,2.35,0,0,0,1.62-2.56,17.35,17.35,0,0,1,0-2.28,2.09,2.09,0,0,0-.79-1.91,5,5,0,0,1-1.94-3.94,2.08,2.08,0,0,0-1.33-2,1.63,1.63,0,0,1-.26-2.75,2.09,2.09,0,0,0,.9-2.08,14.37,14.37,0,0,1-.17-3.65c.64-3.59,3.9-5.81,7.85-5.3a6.28,6.28,0,0,1,5.7,7.05c-.07.67-.11,1.34-.18,2a1.92,1.92,0,0,0,.79,1.88,1.66,1.66,0,0,1-.24,2.9,1.92,1.92,0,0,0-1.18,1.77,5.08,5.08,0,0,1-1.63,4.09,1.57,1.57,0,0,0-.42,1.29c-.2,4.73-.19,4.71,4.07,6.8,3.39,1.66,6.89,3.14,10.18,5a1.52,1.52,0,0,1,.87,1.52c0,2-.07,4.06,0,6.09,0,.84-.29.94-1,.94C51.65,63.16,45.56,63.18,39.48,63.18Z"/><path class="cls-2" d="M85.65,37.36H65.11a3.55,3.55,0,1,1,0-7.09H106a3.51,3.51,0,0,1,3.7,3.62,3.45,3.45,0,0,1-3.71,3.46Z"/><path class="cls-2" d="M92.06,55.18H78.12a3.42,3.42,0,0,1-3.35-2,3.38,3.38,0,0,1,.4-3.69A3.22,3.22,0,0,1,77.9,48.1c9.41,0,18.83,0,28.25,0a3.54,3.54,0,0,1,0,7.07C101.44,55.21,96.75,55.18,92.06,55.18Z"/></g></g></svg>