<svg xmlns="http://www.w3.org/2000/svg" viewBox="0 0 122.2 121.22"><defs><style>.cls-1,.cls-3{fill:#868686;}.cls-2{fill:none;stroke-width:2.42px;}.cls-2,.cls-3{stroke:#868686;stroke-miterlimit:10;}.cls-3{stroke-width:3.95px;}</style></defs><g id="Capa_2" data-name="Capa 2"><g id="PORTAL"><path class="cls-1" d="M0,22.76v98.46H77.39V22.76Zm69.07,87.86H8.33V33.36H69.07Z"/><path class="cls-1" d="M28.35,15.91H47.57A2.39,2.39,0,0,1,50,18.3v6.91a0,0,0,0,1,0,0H26a0,0,0,0,1,0,0V18.3A2.39,2.39,0,0,1,28.35,15.91Z"/><path class="cls-2" d="M115.11,1.21H121V21.78S121,36,105.31,36c0,0,2.45,47-34.29,51.43C58.29,88.89,48.49,83,48,69.79s9.31-17.64,22-17.64,37.72,35.76,37.72,35.76"/><path class="cls-2" d="M94.29,1.21h-7.1V22s3.67,14,18.12,14"/><circle class="cls-2" cx="112.66" cy="93.52" r="7.59"/><line class="cls-3" x1="17.63" y1="45.3" x2="51.92" y2="45.3"/><line class="cls-3" x1="19.35" y1="59.26" x2="41.15" y2="59.26"/><line class="cls-3" x1="17.63" y1="72.48" x2="41.88" y2="72.48"/><line class="cls-3" x1="18.37" y1="85.22" x2="41.88" y2="85.22"/><line class="cls-3" x1="17.63" y1="98.69" x2="60.49" y2="98.69"/></g></g></svg>