<svg xmlns="http://www.w3.org/2000/svg" viewBox="0 0 112.72 89.38"><defs><style>.cls-1{fill:#00a983;}</style></defs><g id="Capa_2" data-name="Capa 2"><g id="PORTAL"><path class="cls-1" d="M104.35,12.77H48.79A14.41,14.41,0,0,0,34.52,0h-20A14.4,14.4,0,0,0,.21,14.36c0,1.35-.42,2.65-.07,3.89-.34.9.07,1.87.07,2.9V81a8.4,8.4,0,0,0,8.38,8.38h95.76A8.4,8.4,0,0,0,112.72,81V21.15A8.4,8.4,0,0,0,104.35,12.77Zm.34,63A7.2,7.2,0,0,1,97.51,83H15.43a7.21,7.21,0,0,1-7.19-7.18V24.51c0-.88-.34-1.65-.05-2.43-.3-1.06.05-3.84.05-5l41.65.24H97.51a7.2,7.2,0,0,1,7.18,7.18Z"/><rect class="cls-1" x="21.75" y="32.72" width="65.44" height="16.76" rx="1.31"/></g></g></svg>