<svg xmlns="http://www.w3.org/2000/svg" viewBox="0 0 134.47 123.63"><defs><style>.cls-1{fill:#01a19a;}</style></defs><g id="Capa_2" data-name="Capa 2"><g id="PORTAL"><path class="cls-1" d="M127.45,17.57H73a9.18,9.18,0,0,1,.3,2.33c.09,12.43.86,24.83.11,37.24a224.53,224.53,0,0,0,.15,34.21c.83,9.19-10.65,10.92-15.73,5.38v19.94a7,7,0,0,0,7,7h62.53a7,7,0,0,0,7-7V24.55A7,7,0,0,0,127.45,17.57Zm-.67,57.48a46.61,46.61,0,0,1-2,7.47,37.84,37.84,0,0,1-6.19,10c-.17.92-1,1.37-1.58,2a15.81,15.81,0,0,1-1.93,1.72A24.1,24.1,0,0,1,112,98.63a40.85,40.85,0,0,1-4.14,2.34c-1,.49-2.1.81-3.12,1.22a29.24,29.24,0,0,1-5.66,1.46,8.75,8.75,0,0,1-2.59.23,3.28,3.28,0,0,0-1.22.15c-1.07,0-2.19,0-3.24,0a4.38,4.38,0,0,0-1.3-.17c-.33,0-.67,0-1,0a27.56,27.56,0,0,1-4.24-.69,39.36,39.36,0,0,1-4.71-1.56,44.71,44.71,0,0,1-4.33-2.15c-.17-.12-.37-.23-.52-.36a.85.85,0,0,1-.25-.43c0-.13,0-.23,0-.36V74.34a5,5,0,0,1,0-.86A.93.93,0,0,1,76.2,73c-.26,0-.45,0-.51-.38-.07-2.94,0-5.87,0-8.81V42.93c0-.13,0-.23,0-.36a1.28,1.28,0,0,1,.23-.43,1.26,1.26,0,0,1,.37-.32,24.77,24.77,0,0,1,4.88-2.38,29.14,29.14,0,0,1,5.72-1.69c1-.11,2-.37,3-.41a4.87,4.87,0,0,0,1.48-.15c1.42,0,2.81,0,4.22,0a4.5,4.5,0,0,0,1.5.17c.71,0,1.37.26,2.1.21.9.26,1.82.39,2.74.58a19.1,19.1,0,0,1,3,.9,11.66,11.66,0,0,1,2.42,1c1.31.79,2.85,1.2,4.1,2.14a41.15,41.15,0,0,1,5.72,4.39,5.59,5.59,0,0,1,1.71,2.27,37.86,37.86,0,0,1,5.78,9.28,20.43,20.43,0,0,1,2,6.64.13.13,0,0,0,0,.17,11.56,11.56,0,0,1,.4,3.84c0,1.15,0,2.31,0,3.47A7.64,7.64,0,0,1,126.78,75.05Z"/><path class="cls-1" d="M69.35,0H6.75A6.73,6.73,0,0,0,0,6.66V99.12a6.71,6.71,0,0,0,6.75,6.67h62.6a6.7,6.7,0,0,0,6.72-6.67V6.68A6.71,6.71,0,0,0,69.35,0ZM14.63,15.79H62.21a2.81,2.81,0,1,1,0,5.61H14.63a2.81,2.81,0,1,1,0-5.61ZM14.5,31.92H62.08a2.81,2.81,0,1,1,0,5.61H14.5a2.81,2.81,0,1,1,0-5.61ZM65,50.86a2.83,2.83,0,0,1-2.83,2.8H14.63a2.81,2.81,0,1,1,0-5.61H62.21A2.85,2.85,0,0,1,65,50.86ZM62.21,85.5H14.63a2.81,2.81,0,1,1,0-5.61H62.21a2.81,2.81,0,1,1,0,5.61Zm.13-15.7H14.74a2.81,2.81,0,1,1,0-5.62H62.32A2.83,2.83,0,0,1,65.15,67,2.79,2.79,0,0,1,62.34,69.8Z"/><path class="cls-1" d="M87,83a3.5,3.5,0,0,0,2.41,1,3.45,3.45,0,0,0,2.4-1l20.25-20.25a3.33,3.33,0,0,0-4.71-4.7L89.53,75.9l-4.34-4.33a3.47,3.47,0,0,0-3.3-.9,3.53,3.53,0,0,0-2.41,2.43,3.26,3.26,0,0,0,.9,3.3Z"/></g></g></svg>