<svg xmlns="http://www.w3.org/2000/svg" viewBox="0 0 107.5 118.9"><defs><style>.cls-1{fill:#868686;}.cls-2{fill:#fff;}</style></defs><g id="Capa_2" data-name="Capa 2"><g id="PORTAL"><path class="cls-1" d="M79.28,102.85H0V0H58.06L79.28,23.06Zm-76.77-2.5H76.78V24L57,2.51H2.51Z"/><rect class="cls-1" x="56.54" y="2.77" width="2.44" height="23.09"/><rect class="cls-1" x="57.25" y="23.92" width="19.77" height="2.44"/><path class="cls-1" d="M22.28,32.63a3.81,3.81,0,0,0-1.18-2.84,10.56,10.56,0,0,0-4-2.09,12.8,12.8,0,0,1-5.7-3.11,6.89,6.89,0,0,1-1.79-4.88,7,7,0,0,1,1.75-4.93,7.47,7.47,0,0,1,4.82-2.3v-4h2.74v4a7.07,7.07,0,0,1,4.8,2.59A9.32,9.32,0,0,1,25.44,21H22.06a6.41,6.41,0,0,0-1.23-4.13,4,4,0,0,0-3.32-1.53,4.61,4.61,0,0,0-3.34,1.13A4.24,4.24,0,0,0,13,19.65a3.81,3.81,0,0,0,1.23,3,11.09,11.09,0,0,0,4,2,16.89,16.89,0,0,1,4.36,2,7.12,7.12,0,0,1,2.32,2.54,7.44,7.44,0,0,1,.74,3.4,6.82,6.82,0,0,1-1.86,5,8.29,8.29,0,0,1-5.23,2.24v3.51H15.88V39.83a7.93,7.93,0,0,1-5.35-2.43,8.23,8.23,0,0,1-1.94-5.76H12a5.38,5.38,0,0,0,1.34,3.93A5,5,0,0,0,17.13,37a5.71,5.71,0,0,0,3.78-1.16A3.92,3.92,0,0,0,22.28,32.63Z"/><line class="cls-1" x1="30.14" y1="20.26" x2="50.92" y2="20.26"/><rect class="cls-1" x="30.14" y="19.32" width="20.78" height="1.88"/><line class="cls-1" x1="29.13" y1="30.9" x2="50.16" y2="30.9"/><rect class="cls-1" x="29.13" y="29.96" width="21.03" height="1.88"/><line class="cls-1" x1="11.64" y1="48.64" x2="33.18" y2="48.64"/><rect class="cls-1" x="11.64" y="47.7" width="21.54" height="1.88"/><line class="cls-1" x1="11.13" y1="58.01" x2="19.75" y2="58.01"/><rect class="cls-1" x="11.13" y="57.07" width="8.62" height="1.88"/><line class="cls-1" x1="23.66" y1="58.01" x2="32.28" y2="58.01"/><rect class="cls-1" x="23.66" y="57.07" width="8.62" height="1.88"/><line class="cls-1" x1="11.13" y1="70.54" x2="19.75" y2="70.54"/><rect class="cls-1" x="11.13" y="69.6" width="8.62" height="1.88"/><line class="cls-1" x1="23.66" y1="70.54" x2="32.28" y2="70.54"/><rect class="cls-1" x="23.66" y="69.6" width="8.62" height="1.88"/><line class="cls-1" x1="11.13" y1="80.57" x2="19.75" y2="80.57"/><rect class="cls-1" x="11.13" y="79.63" width="8.62" height="1.88"/><line class="cls-1" x1="23.66" y1="80.57" x2="32.28" y2="80.57"/><rect class="cls-1" x="23.66" y="79.63" width="8.62" height="1.88"/><line class="cls-1" x1="11.13" y1="90.59" x2="19.75" y2="90.59"/><rect class="cls-1" x="11.13" y="89.65" width="8.62" height="1.88"/><line class="cls-1" x1="23.66" y1="90.59" x2="32.28" y2="90.59"/><rect class="cls-1" x="23.66" y="89.65" width="8.62" height="1.88"/><rect class="cls-2" x="38.38" y="38.33" width="68.93" height="79.06" rx="8.09"/><path class="cls-1" d="M102.28,118.9H42.63a5.21,5.21,0,0,1-5.21-5.21V42.55a5.22,5.22,0,0,1,5.21-5.22h59.65a5.22,5.22,0,0,1,5.22,5.22v71.14A5.22,5.22,0,0,1,102.28,118.9Zm-57.14-2.5H99.78a5.22,5.22,0,0,0,5.21-5.22V45.06a5.22,5.22,0,0,0-5.21-5.22H45.14a5.22,5.22,0,0,0-5.22,5.22v66.12A5.22,5.22,0,0,0,45.14,116.4Z"/><path class="cls-1" d="M91.56,68.57H52.11a1.81,1.81,0,0,1-1.81-1.81V53.66a1.81,1.81,0,0,1,1.81-1.81H91.56a1.81,1.81,0,0,1,1.81,1.81v13.1A1.81,1.81,0,0,1,91.56,68.57ZM54,66.72H89.71a1.81,1.81,0,0,0,1.81-1.81v-9.4a1.81,1.81,0,0,0-1.81-1.81H54a1.81,1.81,0,0,0-1.81,1.81v9.4A1.81,1.81,0,0,0,54,66.72Z"/><path class="cls-1" d="M61.7,90.35H48.25a.87.87,0,0,1-.87-.86V75.87a.86.86,0,0,1,.87-.86H61.7a.86.86,0,0,1,.86.86V89.49A.87.87,0,0,1,61.7,90.35Zm-11-2.5h8.44a.87.87,0,0,0,.87-.87v-8.6a.87.87,0,0,0-.87-.87H50.75a.87.87,0,0,0-.86.87V87A.87.87,0,0,0,50.75,87.85Z"/><path class="cls-1" d="M79.24,90.35H65.79a.86.86,0,0,1-.86-.86V75.87a.85.85,0,0,1,.86-.86H79.24a.85.85,0,0,1,.86.86V89.49A.86.86,0,0,1,79.24,90.35ZM68.3,87.85h8.43A.87.87,0,0,0,77.6,87v-8.6a.87.87,0,0,0-.87-.87H68.3a.87.87,0,0,0-.87.87V87A.87.87,0,0,0,68.3,87.85Z"/><path class="cls-1" d="M97.11,109.1h-12a.87.87,0,0,1-.86-.87V75.37a.86.86,0,0,1,.86-.86h12a.86.86,0,0,1,.87.86v32.86A.87.87,0,0,1,97.11,109.1Zm-8.52-3.51h5a.87.87,0,0,0,.87-.86V78.88A.87.87,0,0,0,93.6,78h-5a.86.86,0,0,0-.86.87v25.85A.86.86,0,0,0,88.59,105.59Z"/><path class="cls-1" d="M61.7,107.89H48.25a.86.86,0,0,1-.87-.86V93.41a.87.87,0,0,1,.87-.86H61.7a.87.87,0,0,1,.86.86V107A.86.86,0,0,1,61.7,107.89Zm-11-2.5h8.44a.87.87,0,0,0,.87-.87v-8.6a.87.87,0,0,0-.87-.87H50.75a.87.87,0,0,0-.86.87v8.6A.87.87,0,0,0,50.75,105.39Z"/><path class="cls-1" d="M79.24,107.89H65.79a.85.85,0,0,1-.86-.86V93.41a.86.86,0,0,1,.86-.86H79.24a.86.86,0,0,1,.86.86V107A.85.85,0,0,1,79.24,107.89Zm-10.94-2.5h8.43a.87.87,0,0,0,.87-.87v-8.6a.87.87,0,0,0-.87-.87H68.3a.87.87,0,0,0-.87.87v8.6A.87.87,0,0,0,68.3,105.39Z"/></g></g></svg>