<svg xmlns="http://www.w3.org/2000/svg" viewBox="0 0 114.89 143.52"><defs><style>.cls-1{fill:#0092bc;}</style></defs><g id="Capa_2" data-name="Capa 2"><g id="PORTAL"><path class="cls-1" d="M0,71.73V15.22C0,7.5,4.53,1.71,11.65.27A18.08,18.08,0,0,1,15.34,0Q42.78,0,70.17,0A3.52,3.52,0,0,1,73,1.14Q93.36,21.56,113.72,42a4,4,0,0,1,1.12,2.59q.07,42,0,83.94c0,7.59-4.58,13.33-11.66,14.77a18,18,0,0,1-3.68.25H15.29c-9.23,0-15.27-6-15.27-15.27Q0,100,0,71.73Zm14.43,57.36h86V50.16H64.53V14.45H14.45C14.43,52.71,14.43,90.84,14.43,129.09Z"/><path class="cls-1" d="M46.77,98.28H29.64l28-28c9.08,9.08,18.51,18.48,28,28H68.29v21.5H46.77Z"/></g></g></svg>